<svg width="96" height="96" viewBox="0 0 96 96" fill="none" xmlns="http://www.w3.org/2000/svg">
<path d="M37.4958 28.632C34.0158 28.766 30.8698 30.008 29.1878 31.692C29.002 31.8777 28.7814 32.025 28.5387 32.1254C28.296 32.2259 28.0358 32.2775 27.7731 32.2774C27.5104 32.2773 27.2503 32.2255 27.0077 32.1249C26.765 32.0243 26.5445 31.8768 26.3588 31.691C26.1732 31.5052 26.0259 31.2846 25.9254 31.0419C25.825 30.7991 25.7733 30.539 25.7734 30.2763C25.7735 30.0136 25.8254 29.7535 25.926 29.5108C26.0266 29.2682 26.174 29.0477 26.3598 28.862C28.9538 26.268 33.1778 24.796 37.3398 24.634C41.5298 24.472 46.1038 25.618 49.3078 28.822C49.6829 29.1973 49.8934 29.7062 49.8932 30.2367C49.8931 30.7673 49.6821 31.276 49.3068 31.651C48.9316 32.026 48.4227 32.2366 47.8921 32.2364C47.3616 32.2362 46.8529 32.0253 46.4778 31.65C44.2978 29.468 40.9498 28.496 37.4958 28.63" fill="black"/>
<path fill-rule="evenodd" clip-rule="evenodd" d="M57.872 57.768C61.8376 53.0817 64.0095 47.139 64 41C64 26.64 52.36 15 38 15C23.64 15 12 26.64 12 41C12 55.36 23.64 67 38 67C44.39 67 50.24 64.696 54.768 60.872L54 65.288L69.028 80.316L77.316 72.028L62.288 57L57.872 57.768ZM38 61C49.046 61 58 52.046 58 41C58 29.954 49.046 21 38 21C26.954 21 18 29.954 18 41C18 52.046 26.954 61 38 61Z" fill="black"/>
<path d="M71.8564 83.1435L80.1444 74.8555L82.8564 77.5675C84.3824 79.0935 84.3824 81.5675 82.8564 83.0915L80.0924 85.8555C78.5664 87.3815 76.0924 87.3815 74.5684 85.8555L71.8564 83.1435Z" fill="black"/>
</svg>
