<svg width="96" height="109" viewBox="0 0 96 109" fill="none" xmlns="http://www.w3.org/2000/svg">
<path d="M96 65.5818C96.0086 60.7119 94.7503 55.9193 92.3427 51.6518C93.23 50.386 93.7252 48.8983 93.7694 47.366C93.8135 45.8337 93.4047 44.3213 92.5917 43.0089C91.7787 41.6966 90.5957 40.6397 89.1836 39.964C87.7716 39.2884 86.19 39.0225 84.6273 39.1981C85.2473 37.9751 85.7449 36.6907 86.1124 35.3628L88.834 25.496C90.3178 20.9002 90.0136 15.9329 87.9793 11.5416C85.945 7.15043 82.323 3.64265 77.8044 1.68743C73.2857 -0.267784 68.1865 -0.533589 63.4796 0.94072C58.7727 2.41503 54.7874 5.52627 52.284 9.68095C49.9915 6.60137 46.6471 4.41936 42.8519 3.52692C39.0566 2.63447 35.0592 3.09009 31.5777 4.81191C28.0962 6.53373 25.3589 9.40891 23.8575 12.9209C22.3561 16.4329 22.189 20.3515 23.3863 23.9728H14.88C0.184261 23.9728 -5.58562 42.5449 6.64104 50.4868L13.8441 55.1687L8.82052 74.374C8.19251 76.6915 8.12382 79.1193 8.61984 81.4671C9.11585 83.8148 10.1631 86.0187 11.6795 87.906C13.6609 90.3949 16.3647 92.2456 19.4395 93.2175V105.382C19.4395 106.341 19.8307 107.262 20.527 107.94C21.2233 108.619 22.1677 109 23.1524 109H92.287C93.2718 109 94.2162 108.619 94.9125 107.94C95.6088 107.262 96 106.341 96 105.382V65.5818ZM44.019 93.9846H54.1182C56.2689 93.9849 58.3339 93.1623 59.8685 91.6939C61.4031 90.2255 62.2848 88.2286 62.3237 86.1331C62.3242 85.0608 62.1073 83.999 61.6853 83.0088C61.2633 82.0185 60.6447 81.1192 59.8649 80.3627C59.0851 79.6062 58.1596 79.0073 57.1415 78.6005C56.1234 78.1937 55.0329 77.9869 53.9325 77.9922H44.019V68.0096C44.0191 67.4141 43.8684 66.8278 43.5801 66.3026C43.2919 65.7775 42.8751 65.3298 42.3668 64.9993L10.7587 44.4661C4.64719 40.4934 7.53214 31.2091 14.88 31.2091H25.4173L26.3084 34.4293C27.1579 37.5099 28.885 40.2932 31.2898 42.4574C33.6946 44.6216 36.6789 46.0782 39.8977 46.6588C41.9906 47.0157 44.1365 46.9479 46.2013 46.4599C48.2661 45.9718 50.2054 45.0738 51.8979 43.8221C52.1021 43.8583 52.3137 43.8728 52.529 43.8728H66.2966C67.7186 43.8728 69.1073 44.003 70.455 44.249L61.1356 47.7442C59.3545 48.4184 57.8707 49.6773 56.9402 51.3035C56.0096 52.9298 55.6906 54.8215 56.0382 56.6524C56.3859 58.4834 57.3783 60.1387 58.8443 61.3329C60.3103 62.527 62.1581 63.1852 64.0688 63.1938C65.0862 63.1938 66.0924 63.0093 67.0392 62.6511L86.0456 55.5233C87.6607 58.5264 88.5741 61.9528 88.5741 65.5818V101.764H44.019V93.9846ZM57.4041 36.6364C58.7337 33.2997 58.9366 29.6367 57.9833 26.1798L56.3199 20.3148L57.211 17.0801L57.2333 16.9933C57.595 15.3543 58.2946 13.8041 59.2897 12.4366C60.2849 11.0692 61.5548 9.91302 63.0224 9.03834C64.4899 8.16366 66.1246 7.58869 67.8271 7.34834C69.5297 7.10798 71.2646 7.20725 72.9265 7.64011C74.5885 8.07298 76.1429 8.83041 77.4953 9.86645C78.8478 10.9025 79.9701 12.1955 80.7942 13.6671C81.6183 15.1386 82.1269 16.758 82.2893 18.4269C82.4516 20.0959 82.2643 21.7795 81.7386 23.3758L81.7126 23.4554L78.9391 33.4958C78.4526 35.2698 77.5928 36.9258 76.4143 38.3586C73.1702 37.2153 69.7463 36.6325 66.2966 36.6364H57.4041Z" fill="black"/>
</svg>
