<svg width="96" height="96" viewBox="0 0 96 96" fill="none" xmlns="http://www.w3.org/2000/svg">
<path d="M42 12H18C16.4087 12 14.8826 12.6321 13.7574 13.7574C12.6321 14.8826 12 16.4087 12 18V62C12 63.5913 12.6321 65.1174 13.7574 66.2426C14.8826 67.3679 16.4087 68 18 68H78C79.5913 68 81.1174 67.3679 82.2426 66.2426C83.3679 65.1174 84 63.5913 84 62V42M48 68V84" stroke="black" stroke-width="6" stroke-linecap="round" stroke-linejoin="round"/>
<path d="M64 12L56 20L64 28M76 12L84 20L76 28M28 84H68" stroke="black" stroke-width="4" stroke-linecap="round" stroke-linejoin="round"/>
</svg>
