<svg width="332" height="331" viewBox="0 0 332 331" fill="none" xmlns="http://www.w3.org/2000/svg">
<rect width="332" height="331" fill="white"/>
<path d="M170.826 13.4994L311.56 74.396C316.683 76.613 320 81.6621 320 87.2447V241.815C320 247.37 316.715 252.4 311.629 254.633L170.895 316.432C167.303 318.009 163.213 318.007 159.622 316.425L19.3564 254.639C14.2778 252.402 11 247.376 11 241.827V87.2325C11 81.6556 14.3099 76.6107 19.4256 74.3901L58.8982 57.2565L159.692 13.5057C163.242 11.9644 167.273 11.9621 170.826 13.4994Z" stroke="black" stroke-width="2"/>
<path d="M15.4994 160.174L76.396 19.4402C78.613 14.3167 83.6621 11 89.2447 11H243.815C249.37 11 254.4 14.2847 256.633 19.3712L318.432 160.105C320.009 163.697 320.007 167.787 318.425 171.378L256.639 311.644C254.402 316.722 249.376 320 243.827 320H89.2325C83.6556 320 78.6107 316.69 76.3901 311.574L15.5057 171.308C13.9644 167.758 13.9621 163.727 15.4994 160.174Z" stroke="black" stroke-width="2"/>
<path d="M266 165.241C266 229.595 221.533 281.483 167 281.483C112.467 281.483 68 229.595 68 165.241C68 100.888 112.467 49 167 49C221.533 49 266 100.888 266 165.241Z" stroke="black" stroke-width="2"/>
<path d="M164.824 191.104H193.496V208H142.936V118.144H164.824V191.104Z" fill="black"/>
</svg>
